<mxfile host="app.diagrams.net" modified="2023-01-09T09:56:43.088Z" agent="5.0 (Windows NT 10.0; Win64; x64) AppleWebKit/537.36 (KHTML, like Gecko) Chrome/108.0.0.0 Safari/537.36" version="20.7.4" etag="yxYyXLl5Xk5TkITVGaex" type="github">
  <diagram id="eEdp_dYlMT8qXaa8OPZ4" name="페이지-1">
    <mxGraphModel dx="1674" dy="764" grid="1" gridSize="10" guides="1" tooltips="1" connect="1" arrows="1" fold="1" page="1" pageScale="1" pageWidth="827" pageHeight="1169" math="0" shadow="0">
      <root>
        <mxCell id="0" />
        <mxCell id="1" parent="0" />
        <mxCell id="y7mqi9ZkjeoL3Yo72VFg-1" value="" style="rounded=0;html=1;jettySize=auto;orthogonalLoop=1;fontSize=11;endArrow=block;endFill=0;endSize=8;strokeWidth=1;shadow=0;labelBackgroundColor=none;edgeStyle=orthogonalEdgeStyle;" edge="1" parent="1" source="y7mqi9ZkjeoL3Yo72VFg-2">
          <mxGeometry relative="1" as="geometry">
            <mxPoint x="220" y="170" as="targetPoint" />
          </mxGeometry>
        </mxCell>
        <mxCell id="y7mqi9ZkjeoL3Yo72VFg-2" value="모비센스 지면 발급" style="rounded=1;whiteSpace=wrap;html=1;fontSize=12;glass=0;strokeWidth=1;shadow=0;" vertex="1" parent="1">
          <mxGeometry x="160" y="80" width="120" height="40" as="geometry" />
        </mxCell>
        <mxCell id="y7mqi9ZkjeoL3Yo72VFg-3" value="" style="rounded=0;html=1;jettySize=auto;orthogonalLoop=1;fontSize=11;endArrow=block;endFill=0;endSize=8;strokeWidth=1;shadow=0;labelBackgroundColor=none;edgeStyle=orthogonalEdgeStyle;" edge="1" parent="1">
          <mxGeometry y="20" relative="1" as="geometry">
            <mxPoint as="offset" />
            <mxPoint x="220" y="250" as="sourcePoint" />
            <mxPoint x="220" y="290" as="targetPoint" />
          </mxGeometry>
        </mxCell>
        <mxCell id="y7mqi9ZkjeoL3Yo72VFg-6" value="지면 발급 시 생성된&lt;br&gt;스크립트를 광고주 &lt;br&gt;웹 사이트에 include" style="rounded=1;whiteSpace=wrap;html=1;fontSize=12;glass=0;strokeWidth=1;shadow=0;" vertex="1" parent="1">
          <mxGeometry x="140" y="170" width="160" height="90" as="geometry" />
        </mxCell>
        <mxCell id="y7mqi9ZkjeoL3Yo72VFg-7" value="" style="rounded=0;html=1;jettySize=auto;orthogonalLoop=1;fontSize=11;endArrow=block;endFill=0;endSize=8;strokeWidth=1;shadow=0;labelBackgroundColor=none;edgeStyle=orthogonalEdgeStyle;" edge="1" parent="1" target="y7mqi9ZkjeoL3Yo72VFg-10">
          <mxGeometry x="0.3333" y="20" relative="1" as="geometry">
            <mxPoint as="offset" />
            <mxPoint x="220" y="370" as="sourcePoint" />
          </mxGeometry>
        </mxCell>
        <mxCell id="y7mqi9ZkjeoL3Yo72VFg-10" value="End" style="rounded=1;whiteSpace=wrap;html=1;fontSize=12;glass=0;strokeWidth=1;shadow=0;" vertex="1" parent="1">
          <mxGeometry x="160" y="430" width="120" height="40" as="geometry" />
        </mxCell>
        <mxCell id="y7mqi9ZkjeoL3Yo72VFg-12" value="스크립트에서 송출 서버에&lt;br&gt;광고 요청" style="rounded=1;whiteSpace=wrap;html=1;fontSize=12;glass=0;strokeWidth=1;shadow=0;" vertex="1" parent="1">
          <mxGeometry x="140" y="290" width="160" height="90" as="geometry" />
        </mxCell>
        <mxCell id="y7mqi9ZkjeoL3Yo72VFg-13" value="&lt;h1&gt;HawkEyes&lt;/h1&gt;&lt;p&gt;&amp;lt;script src=&#39;//img.mobon.net/js/common/HawkEyesMaker.js&#39;&amp;gt;&amp;lt;/script&amp;gt;&lt;/p&gt;&lt;p&gt;&amp;lt;script&amp;gt;&lt;/p&gt;&lt;p&gt;&lt;span style=&quot;&quot;&gt;	&lt;/span&gt;new HawkEyes({&quot;type&quot;:&quot;banner&quot;,&quot;responsive&quot;:&quot;N&quot;,&quot;platform&quot;:&quot;W&quot;,&quot;scriptCode&quot;:&quot;634733&quot;,&quot;frameCode&quot;:&quot;74&quot;,&quot;width&quot;:&quot;300&quot;,&quot;height&quot;:&quot;250&quot;,&quot;settings&quot;:{&quot;cntad&quot;:&quot;1&quot;,&quot;cntsr&quot;:&quot;1&quot;}});&lt;/p&gt;&lt;p&gt;&amp;lt;/script&amp;gt;&lt;/p&gt;" style="text;html=1;strokeColor=none;fillColor=none;spacing=5;spacingTop=-20;whiteSpace=wrap;overflow=hidden;rounded=0;" vertex="1" parent="1">
          <mxGeometry x="340" y="140" width="800" height="210" as="geometry" />
        </mxCell>
      </root>
    </mxGraphModel>
  </diagram>
</mxfile>
